<?xml version="1.0" encoding="UTF-8"?>
<svg id="Warstwa_1" xmlns="http://www.w3.org/2000/svg" xmlns:xlink="http://www.w3.org/1999/xlink" version="1.1" viewBox="0 0 512 512">
  <!-- Generator: Adobe Illustrator 29.0.0, SVG Export Plug-In . SVG Version: 2.1.0 Build 186)  -->
  <defs>
    <style>
      .st0 {
        fill: #ff67b8;
      }

      .st1 {
        filter: url(#drop-shadow-1);
      }

      .st2 {
        fill: #062f4c;
      }

      .st3 {
        fill: url(#Gradient_bez_nazwy_5);
      }

      .st4 {
        fill: #fff;
      }

      .st5 {
        fill: url(#Gradient_bez_nazwy_55);
      }

      .st6 {
        fill: url(#Gradient_bez_nazwy_53);
      }

      .st7 {
        fill: url(#Gradient_bez_nazwy_52);
      }

      .st8 {
        fill: url(#Gradient_bez_nazwy_54);
      }

      .st9 {
        fill: url(#Gradient_bez_nazwy_51);
      }
    </style>
    <filter id="drop-shadow-1" x="-531.5" y="532.5" width="511" height="511" filterUnits="userSpaceOnUse">
      <feOffset dx="31.3" dy="31.3"/>
      <feGaussianBlur result="blur" stdDeviation="22.4"/>
      <feFlood flood-color="#999" flood-opacity=".8"/>
      <feComposite in2="blur" operator="in"/>
      <feComposite in="SourceGraphic"/>
    </filter>
    <linearGradient id="Gradient_bez_nazwy_5" data-name="Gradient bez nazwy 5" x1="-426.6" y1="887.6" x2="-125.4" y2="887.6" gradientUnits="userSpaceOnUse">
      <stop offset="0" stop-color="#dfbb90"/>
      <stop offset="0" stop-color="#dfbb90"/>
      <stop offset=".6" stop-color="#eacfaf"/>
      <stop offset="1" stop-color="#efd7bb"/>
    </linearGradient>
    <linearGradient id="Gradient_bez_nazwy_51" data-name="Gradient bez nazwy 5" x1="-393.7" y1="794.8" x2="-158.3" y2="794.8" xlink:href="#Gradient_bez_nazwy_5"/>
    <linearGradient id="Gradient_bez_nazwy_52" data-name="Gradient bez nazwy 5" x1="-358.3" y1="711.8" x2="-193.7" y2="711.8" xlink:href="#Gradient_bez_nazwy_5"/>
    <linearGradient id="Gradient_bez_nazwy_53" data-name="Gradient bez nazwy 5" x1="-481.6" y1="392" x2="-70.4" y2="392" xlink:href="#Gradient_bez_nazwy_5"/>
    <linearGradient id="Gradient_bez_nazwy_54" data-name="Gradient bez nazwy 5" x1="-436.7" y1="265.3" x2="-115.3" y2="265.3" xlink:href="#Gradient_bez_nazwy_5"/>
    <linearGradient id="Gradient_bez_nazwy_55" data-name="Gradient bez nazwy 5" x1="-388.4" y1="152" x2="-163.6" y2="152" xlink:href="#Gradient_bez_nazwy_5"/>
  </defs>
  <path class="st4" d="M46.5,24.1c57.1,1.1,151.4,10,195.5,50.4,4.1,3.8,8.5,7.8,8.5,13.9v377.5c-1.4,14.3-13.5-1.2-18.7-4.9-46.8-33.7-107-40.1-163.3-42.8-29.6-1.4-61.6,6.9-67.9-32.9V55c1.6-15.4,16.4-28.9,31.4-30.8,4.1-.5,10.2,0,14.6,0ZM314.5,473.6V135.9c-2.8-19.4-29.2-19.4-32.1,0v339.7c.8,6.5,6,10.2,11,13.5h10c5.9-3.6,11-7.9,11-15.4ZM420.3,28.9c-4.3,8.2-5.2,25.2-8.5,34.8-3.4,9.8-11.6,17.9-21.3,21.3-9.7,3.4-26.7,4.2-34.8,8.5-8,4.2-8,16.3,0,20.5,8.2,4.3,25.2,5.1,34.8,8.5,9.7,3.4,17.9,11.5,21.3,21.3,3.3,9.7,4.2,26.7,8.5,34.8,4.2,8,16.3,8,20.5,0,4.3-8.2,5.2-25.2,8.5-34.8,3.3-9.7,11.6-18,21.3-21.3,9.7-3.3,26.7-4.2,34.8-8.5,8-4.2,8-16.3,0-20.5-8.2-4.3-25.2-5.2-34.8-8.5-9.7-3.3-18-11.6-21.3-21.3-3.2-9.3-4.5-27.9-8.7-35.3-2.5-4.3-7.6-6.1-12.4-5.3-3,.5-6.5,3.1-7.9,5.8ZM347.4,171.6v243.8c2.7,19.4,29.3,19.4,32,0v-242.8c-1.1-10.2-10.3-16.3-20.3-14.2s-11.3,7.9-11.7,13.2ZM412.4,227.6v132.9c4.2,18.6,29.2,18,32-1v-131.9c-2-9.6-10.5-15.3-20.3-13.2-5.1,1.1-11.3,7.9-11.7,13.2Z"/>
  <g>
    <g class="st1">
      <path class="st2" d="M-134.4,532.5h-283.2c-62.9,0-113.9,51-113.9,113.9v283.2c0,62.9,51,113.9,113.9,113.9H-134.4c62.9,0,113.9-51,113.9-113.9v-283.2c0-62.9-51-113.9-113.9-113.9Z"/>
    </g>
    <g>
      <g>
        <path class="st0" d="M-124.2,956.5v-45.9c0-7.4-7.6-12.6-14.4-9.6-10.6,4.7-19.5,13-30.3,17.3-21.4,8.7-44.8,6.8-64.7-4.6-19.7-11.4-24.7-18.4-50.5-16.1-18.9,1.7-28.9,15.3-45.1,21.5-16.5,6.2-35.2,6.4-51.7.2-11.7-4.4-21.1-13.3-32.3-18.2-6.8-3-14.5,2.1-14.5,9.5v45.9h-.1c0,7.3,5.9,13.2,13.2,13.1l277.7-.3c7.1,0,12.9-5.8,12.9-12.9h0s-.1,0-.1,0Z"/>
        <path class="st3" d="M-126.2,875c2.2,4.3-.4,9.6-5.1,10.5-2,.4-3.9.8-5.8,1.3-27.1,7.4-34.9,28.7-69.4,23.1-19.6-3.2-29.6-16.9-47.2-22.5-9.2-2.9-20-3.5-29.7-2.9-34.9,2.3-44.9,34.4-86.5,24.6-14.5-3.4-23.4-13.8-36.5-19.3-4.6-1.9-9.4-3.4-14.3-4.3-4.8-.9-7.5-6.1-5.3-10.4,2.9-5.7,8.8-9.8,15.5-10.7H-142.4c7,.6,13.2,4.7,16.2,10.6Z"/>
        <path class="st9" d="M-374.5,771.7l195.7-.2c9.7.7,16.5,4.4,19.9,11.9,1.8,4.1-.5,8.9-4.8,10.3-3.9,1.2-7.8,2.4-11.6,4.5-12.3,6.8-16.4,17.9-33,19.7-25.7,2.7-28.2-13.3-46.5-21.5-11.3-5.1-23.1-6.1-35.1-2.8-21.9,6-26.2,26.8-53,24.4-17.5-1.6-22.2-14.1-35.7-20.8-3.1-1.5-6.3-2.5-9.5-3.5s-6.8-6.3-4.8-10.4c3.2-6.9,10.2-11.3,18.5-11.5Z"/>
        <path class="st0" d="M-156.8,813.9v27.2c0,5.6-4.5,10.1-10.1,10.1h-218.2c-5.6,0-10.1-4.5-10.1-10.1v-27.2c0-4.6,4.9-7.6,9-5.6,10.1,5,17.4,15,28.2,19.3,10.7,4.3,23,4.8,34.1,1.6,20.5-5.9,26.9-26.5,51.4-24.3,17.9,1.6,21.8,13.2,35.3,20.4,13.2,7.1,29.5,7.9,43.4,2.3,11.1-4.4,18-14.3,28.2-19.3,4.2-2,9,1,9,5.6Z"/>
        <path class="st7" d="M-195.4,698.8c2.9,3.1,1.9,8-1.9,9.9-10.8,5.2-18.6,21.5-28.2,23.1-18.2,3.1-20.9-13.6-33.6-21-13-7.6-28.1-6.1-39.4,3.8-6.3,5.5-10,15.2-19.3,17.1-18,3.7-23.3-16.2-37.2-23s-4.4-6.7-1.7-9.7c3.2-3.4,7.9-5.8,12.3-6.4.4,0,.8,0,1.3,0,43.4,2.3,90.4-3.3,133.3,0,5.3.4,10.8,2.6,14.4,6.4Z"/>
        <path class="st0" d="M-190.1,726.5v21.6c0,5.6-4.5,10.1-10.1,10.1h-151.7c-5.6,0-10.1-4.5-10.1-10.1v-21.7c0-3.1,3.6-4.6,5.9-2.6,4.7,4.1,7.7,9.8,12.7,13.8,12.8,10.2,29.5,10.1,42.2-.3,6.6-5.4,10.9-15,19.6-17.6,18.1-5.5,22.4,13.6,34.5,20.8,11.6,6.9,26.3,6.1,37.2-1.8s8.9-10.7,14.2-15.1c2.3-1.9,5.7-.1,5.7,2.8Z"/>
      </g>
      <path class="st0" d="M-248.5,607.4c-.1-.4-.4-.7-.8-.9-.4-.2-.8-.2-1.2,0h0c-.8.3-8.1,3-15.3,8.4-4.5,3.4-8.1,7.2-10.6,11.2-2.4,3.7-3.9,7.7-4.5,11.9,0,0,0,0,0,0,0,0,0,0-.1,0-6.6,0-12.8,2.9-17,8,0,0,0,0,0,0,0,0,0,0,0,0-.6.7-1,1.4-1.5,2.1-.1.2-.3.4-.4.5,0,0,0,0,0,0-4,6.6-4.3,15.1-.2,22.5,2.8,5.1,7.8,8.9,13.5,10.3,14.6,3.7,27.8-7.3,27.8-21.4s0-.8,0-1.2c0,0,0,0,0,0,0-.5-.1-1.1-.2-1.6,0-.6-.2-1.1-.3-1.7,0,0,0,0,0,0-1.9-9-9.3-16-18.4-17.3.6-3.7,2-7.2,4.1-10.5,4.2-6.6,10.6-11.2,15.2-14,2.7-1.6,5-2.7,6.5-3.3.9-.4,1.5-.6,2-.8.2,0,.4-.2.5-.2h.2c.4-.2.7-.5.9-.8.2-.4.2-.8,0-1.2ZM-289.5,644.3c.7.5.9,1.6.6,3.2-.3,1.5-1.2,3.2-2.3,4.9-2,2.8-4.4,4.6-6.1,4.6s-.7,0-1-.3c-.7-.5-.9-1.6-.6-3.2,0-.4.2-.8.4-1.2,1.4-3.2,3.7-6,6.6-7.9,1-.4,1.8-.5,2.4,0Z"/>
    </g>
  </g>
  <g>
    <g>
      <path class="st0" d="M-68.8,486.1v-62.6c0-10.1-10.4-17.1-19.7-13.1-14.5,6.4-26.6,17.7-41.3,23.6-29.2,11.8-61.2,9.4-88.3-6.3-26.9-15.5-33.8-25.1-68.9-22-25.8,2.3-39.4,20.9-61.6,29.3-22.5,8.5-48.1,8.8-70.6.3-15.9-6-28.7-18.2-44.1-24.9-9.3-4.1-19.8,2.8-19.8,13v62.6h-.2c0,9.9,8,18,18,17.9l379.2-.4c9.7,0,17.6-7.9,17.6-17.6h0s-.1,0-.1,0Z"/>
      <path class="st6" d="M-71.5,374.7c3,5.9-.5,13.1-7,14.3-2.7.5-5.4,1.1-7.9,1.8-37,10.1-47.7,39.2-94.7,31.6-26.8-4.3-40.4-23.1-64.5-30.7-12.6-4-27.3-4.8-40.5-4-47.7,3.1-61.4,46.9-118,33.6-19.8-4.7-31.9-18.8-49.8-26.3-6.2-2.6-12.8-4.6-19.5-5.9-6.5-1.2-10.2-8.3-7.2-14.2,4-7.8,12-13.4,21.2-14.6H-93.6c9.6.8,18,6.4,22.1,14.5Z"/>
      <path class="st8" d="M-410.5,233.7l267.1-.3c13.3,1,22.5,5.9,27.2,16.2,2.5,5.6-.7,12.2-6.5,14-5.3,1.7-10.6,3.3-15.9,6.2-16.8,9.3-22.4,24.5-45,26.8-35,3.7-38.5-18.1-63.4-29.3-15.5-6.9-31.5-8.3-48-3.9-29.9,8.2-35.7,36.6-72.4,33.3-23.9-2.1-30.3-19.2-48.8-28.4-4.2-2.1-8.5-3.5-12.9-4.8s-9.2-8.6-6.6-14.3c4.4-9.4,13.9-15.5,25.3-15.7Z"/>
      <path class="st0" d="M-113.2,291.3v37.2c0,7.6-6.2,13.8-13.8,13.8h-298c-7.6,0-13.8-6.2-13.8-13.8v-37.2c0-6.3,6.6-10.4,12.3-7.6,13.8,6.8,23.7,20.4,38.5,26.3,14.6,5.8,31.4,6.5,46.5,2.1,28-8.1,36.7-36.2,70.2-33.2,24.5,2.2,29.8,18,48.2,27.9,18,9.6,40.2,10.7,59.2,3.1,15.1-6,24.6-19.5,38.4-26.3,5.7-2.8,12.3,1.3,12.3,7.6Z"/>
      <path class="st5" d="M-165.9,134.3c3.9,4.2,2.6,11-2.6,13.5-14.7,7.1-25.4,29.3-38.5,31.5-24.9,4.2-28.6-18.6-45.8-28.7-17.8-10.4-38.3-8.4-53.8,5.2-8.7,7.6-13.6,20.7-26.4,23.3-24.6,5-31.8-22.1-50.8-31.4-5-2.4-6-9.1-2.3-13.2,4.4-4.7,10.8-7.9,16.8-8.7.6,0,1.1,0,1.7,0,59.3,3.2,123.4-4.5,182-.1,7.2.5,14.8,3.5,19.6,8.7Z"/>
      <path class="st0" d="M-158.7,172.1v29.5c0,7.6-6.2,13.8-13.8,13.8h-207c-7.6,0-13.8-6.2-13.8-13.8v-29.6c0-4.2,4.9-6.3,8.1-3.6,6.4,5.5,10.5,13.4,17.4,18.9,17.5,13.9,40.3,13.7,57.5-.4,9-7.4,14.9-20.5,26.7-24,24.7-7.5,30.5,18.6,47.1,28.5,15.8,9.4,35.9,8.4,50.8-2.5s12.2-14.6,19.3-20.6c3.1-2.6,7.8-.2,7.8,3.8Z"/>
    </g>
    <path class="st0" d="M-238.4,9.4c-.2-.5-.6-1-1.1-1.2-.5-.2-1.1-.3-1.6,0h0c-1.1.4-11,4-20.9,11.5-6.1,4.6-11,9.8-14.5,15.3-3.2,5.1-5.3,10.6-6.2,16.3,0,0,0,0,0,0,0,0-.1,0-.2,0-9,0-17.4,4-23.2,10.9,0,0,0,0,0,0,0,0,0,0,0,0-.8.9-1.3,1.9-2,2.9-.2.3-.3.5-.5.7,0,0,0,0,0,0-5.5,9-5.9,20.6-.3,30.7,3.9,6.9,10.7,12.1,18.4,14,20,5.1,38-10,38-29.2s0-1.1,0-1.7c0,0,0,0,0,0-.1-.7-.2-1.4-.2-2.2-.1-.8-.3-1.6-.4-2.3,0,0,0,0,0,0-2.6-12.3-12.7-21.8-25.1-23.6.8-5,2.7-9.8,5.6-14.4,5.7-9,14.5-15.4,20.8-19.1,3.6-2.1,6.8-3.7,8.9-4.6,1.2-.5,2.1-.9,2.7-1.1.3-.1.6-.2.7-.3h.2c.5-.3,1-.6,1.2-1.1.2-.5.3-1.1,0-1.6ZM-294.4,59.9c1,.7,1.3,2.2.8,4.4-.5,2.1-1.6,4.4-3.2,6.7-2.7,3.9-6.1,6.3-8.3,6.3s-1-.1-1.3-.4c-1-.7-1.3-2.2-.8-4.4.1-.5.3-1.1.5-1.7,2-4.4,5.1-8.1,9-10.8,1.3-.6,2.5-.7,3.3,0Z"/>
  </g>
  <g>
    <path class="st4" d="M233.7,656.8c.3.2.6.3,1,.3,1.6,0,4.1-1.8,6.1-4.6,1.2-1.6,2-3.4,2.3-4.9.3-1.5.1-2.7-.6-3.2-.6-.4-1.4-.4-2.4,0-2.9,2-5.2,4.7-6.6,7.9-.2.4-.3.8-.4,1.2-.3,1.5-.1,2.7.6,3.2Z"/>
    <path class="st4" d="M397.6,532.5H114.4c-62.9,0-113.9,51-113.9,113.9v283.2c0,62.9,51,113.9,113.9,113.9h283.2c62.9,0,113.9-51,113.9-113.9v-283.2c0-62.9-51-113.9-113.9-113.9ZM231.9,648.7c.1-.2.3-.4.4-.5.5-.7.9-1.5,1.5-2.1,0,0,0,0,0,0,0,0,0,0,0,0,4.2-5.1,10.4-8,17-8s0,0,.1,0c0,0,0,0,0,0,.6-4.2,2.2-8.2,4.5-11.9,2.6-4.1,6.2-7.8,10.6-11.2,7.3-5.5,14.5-8.1,15.3-8.4h0c.4-.1.8-.1,1.2,0,.4.2.6.5.8.9.1.4.1.8,0,1.2-.2.4-.5.6-.9.8h-.2c-.1.1-.3.2-.5.3-.4.2-1.1.4-2,.8-1.5.7-3.9,1.8-6.5,3.3-4.6,2.7-11.1,7.4-15.2,14-2.1,3.3-3.5,6.9-4.1,10.5,9.1,1.3,16.5,8.3,18.4,17.3,0,0,0,0,0,0,0,.6.2,1.1.3,1.7,0,.5,0,1.1.2,1.6,0,0,0,0,0,0,0,.5,0,.9,0,1.2,0,14.1-13.2,25.1-27.8,21.4-5.6-1.4-10.6-5.2-13.5-10.3-4.1-7.4-3.8-15.9.2-22.5,0,0,0,0,0,0ZM175.3,698.9c3.2-3.4,7.9-5.8,12.3-6.4.4,0,.8,0,1.3,0,43.4,2.3,90.4-3.3,133.3,0,5.3.4,10.8,2.6,14.4,6.4,2.9,3.1,1.9,8-1.9,9.9-10.8,5.2-18.6,21.5-28.2,23.1-18.2,3.1-20.9-13.6-33.6-21-13-7.6-28.1-6.1-39.4,3.8-6.3,5.5-10,15.2-19.3,17.1-18,3.7-23.3-16.2-37.2-23-3.6-1.8-4.4-6.7-1.7-9.7ZM170.1,726.5c0-3.1,3.6-4.6,5.9-2.6,4.7,4.1,7.7,9.8,12.7,13.8,12.8,10.2,29.5,10.1,42.2-.3,6.6-5.4,10.9-15,19.6-17.6,18.1-5.5,22.4,13.6,34.5,20.8,11.6,6.9,26.3,6.1,37.2-1.8,5.7-4.2,8.9-10.7,14.2-15.1,2.3-1.9,5.7-.1,5.7,2.8v21.6c0,5.6-4.5,10.1-10.1,10.1h-151.7c-5.6,0-10.1-4.5-10.1-10.1v-21.7ZM139,783.2c3.2-6.9,10.2-11.3,18.5-11.5l195.7-.2c9.7.7,16.5,4.4,19.9,11.9,1.8,4.1-.5,8.9-4.8,10.3-3.9,1.2-7.8,2.4-11.6,4.5-12.3,6.8-16.4,17.9-33,19.7-25.7,2.7-28.2-13.3-46.5-21.5-11.3-5.1-23.1-6.1-35.1-2.8-21.9,6-26.2,26.8-53,24.4-17.5-1.6-22.2-14.1-35.7-20.8-3.1-1.5-6.3-2.5-9.5-3.5-4.4-1.3-6.8-6.3-4.8-10.4ZM136.8,813.9c0-4.6,4.9-7.6,9-5.6,10.1,5,17.4,15,28.2,19.3,10.7,4.3,23,4.8,34.1,1.6,20.5-5.9,26.9-26.5,51.4-24.3,17.9,1.6,21.8,13.2,35.3,20.4,13.2,7.1,29.5,7.9,43.4,2.3,11.1-4.4,18-14.3,28.2-19.3,4.2-2,9,1,9,5.6v27.2c0,5.6-4.5,10.1-10.1,10.1h-218.2c-5.6,0-10.1-4.5-10.1-10.1v-27.2ZM106.1,875.1c2.9-5.7,8.8-9.8,15.5-10.7h267.9c7,.6,13.2,4.7,16.2,10.6,2.2,4.3-.4,9.6-5.1,10.5-2,.4-3.9.8-5.8,1.3-27.1,7.4-34.9,28.7-69.4,23.1-19.6-3.2-29.6-16.9-47.2-22.5-9.2-2.9-20-3.5-29.7-2.9-34.9,2.3-44.9,34.4-86.5,24.6-14.5-3.4-23.4-13.8-36.5-19.3-4.6-1.9-9.4-3.4-14.3-4.3-4.8-.9-7.5-6.1-5.3-10.4ZM395,969.4l-277.7.3c-7.3,0-13.2-5.9-13.2-13.1h.1v-45.9c0-7.5,7.7-12.5,14.5-9.5,11.3,4.9,20.6,13.8,32.3,18.2,16.5,6.2,35.3,6,51.7-.2,16.2-6.2,26.2-19.8,45.1-21.5,25.7-2.3,30.7,4.7,50.5,16.1,19.9,11.5,43.3,13.3,64.7,4.6,10.8-4.4,19.7-12.6,30.3-17.3,6.8-3,14.4,2.1,14.4,9.6v45.9h.1c0,7.1-5.8,12.9-12.9,12.9Z"/>
  </g>
  <g>
    <g>
      <path class="st4" d="M463.2,486.1v-62.6c0-10.1-10.4-17.1-19.7-13.1-14.5,6.4-26.6,17.7-41.3,23.6-29.2,11.8-61.2,9.4-88.3-6.3-26.9-15.5-33.8-25.1-68.9-22-25.8,2.3-39.4,20.9-61.6,29.3-22.5,8.5-48.1,8.8-70.6.3-15.9-6-28.7-18.2-44.1-24.9-9.3-4.1-19.8,2.8-19.8,13v62.6h-.2c0,9.9,8,18,18,17.9l379.2-.4c9.7,0,17.6-7.9,17.6-17.6h0s-.1,0-.1,0Z"/>
      <path class="st4" d="M460.5,374.7c3,5.9-.5,13.1-7,14.3-2.7.5-5.4,1.1-7.9,1.8-37,10.1-47.7,39.2-94.7,31.6-26.8-4.3-40.4-23.1-64.5-30.7-12.6-4-27.3-4.8-40.5-4-47.7,3.1-61.4,46.9-118,33.6-19.8-4.7-31.9-18.8-49.8-26.3-6.2-2.6-12.8-4.6-19.5-5.9-6.5-1.2-10.2-8.3-7.2-14.2,4-7.8,12-13.4,21.2-14.6h365.8c9.6.8,18,6.4,22.1,14.5Z"/>
      <path class="st4" d="M121.5,233.7l267.1-.3c13.3,1,22.5,5.9,27.2,16.2,2.5,5.6-.7,12.2-6.5,14-5.3,1.7-10.6,3.3-15.9,6.2-16.8,9.3-22.4,24.5-45,26.8-35,3.7-38.5-18.1-63.4-29.3-15.5-6.9-31.5-8.3-48-3.9-29.9,8.2-35.7,36.6-72.4,33.3-23.9-2.1-30.3-19.2-48.8-28.4-4.2-2.1-8.5-3.5-12.9-4.8s-9.2-8.6-6.6-14.3c4.4-9.4,13.9-15.5,25.3-15.7Z"/>
      <path class="st4" d="M418.8,291.3v37.2c0,7.6-6.2,13.8-13.8,13.8H107c-7.6,0-13.8-6.2-13.8-13.8v-37.2c0-6.3,6.6-10.4,12.3-7.6,13.8,6.8,23.7,20.4,38.5,26.3,14.6,5.8,31.4,6.5,46.5,2.1,28-8.1,36.7-36.2,70.2-33.2,24.5,2.2,29.8,18,48.2,27.9,18,9.6,40.2,10.7,59.2,3.1,15.1-6,24.6-19.5,38.4-26.3,5.7-2.8,12.3,1.3,12.3,7.6Z"/>
      <path class="st4" d="M366.1,134.3c3.9,4.2,2.6,11-2.6,13.5-14.7,7.1-25.4,29.3-38.5,31.5-24.9,4.2-28.6-18.6-45.8-28.7-17.8-10.4-38.3-8.4-53.8,5.2-8.7,7.6-13.6,20.7-26.4,23.3-24.6,5-31.8-22.1-50.8-31.4s-6-9.1-2.3-13.2c4.4-4.7,10.8-7.9,16.8-8.7.6,0,1.1,0,1.7,0,59.3,3.2,123.4-4.5,182-.1,7.2.5,14.8,3.5,19.6,8.7Z"/>
      <path class="st4" d="M373.3,172.1v29.5c0,7.6-6.2,13.8-13.8,13.8h-207c-7.6,0-13.8-6.2-13.8-13.8v-29.6c0-4.2,4.9-6.3,8.1-3.6,6.4,5.5,10.5,13.4,17.4,18.9,17.5,13.9,40.3,13.7,57.5-.4,9-7.4,14.9-20.5,26.7-24,24.7-7.5,30.5,18.6,47.1,28.5,15.8,9.4,35.9,8.4,50.8-2.5,7.8-5.7,12.2-14.6,19.3-20.6,3.1-2.6,7.8-.2,7.8,3.8Z"/>
    </g>
    <path class="st4" d="M293.6,9.4c-.2-.5-.6-1-1.1-1.2-.5-.2-1.1-.3-1.6,0h0c-1.1.4-11,4-20.9,11.5-6.1,4.6-11,9.8-14.5,15.3-3.2,5.1-5.3,10.6-6.2,16.3,0,0,0,0,0,0,0,0-.1,0-.2,0-9,0-17.4,4-23.2,10.9,0,0,0,0,0,0,0,0,0,0,0,0-.8.9-1.3,1.9-2,2.9-.2.3-.3.5-.5.7,0,0,0,0,0,0-5.5,9-5.9,20.6-.3,30.7,3.9,6.9,10.7,12.1,18.4,14,20,5.1,38-10,38-29.2s0-1.1,0-1.7c0,0,0,0,0,0-.1-.7-.2-1.4-.2-2.2-.1-.8-.3-1.6-.4-2.3,0,0,0,0,0,0-2.6-12.3-12.7-21.8-25.1-23.6.8-5,2.7-9.8,5.6-14.4,5.7-9,14.5-15.4,20.8-19.1,3.6-2.1,6.8-3.7,8.9-4.6,1.2-.5,2.1-.9,2.7-1.1.3-.1.6-.2.7-.3h.2c.5-.3,1-.6,1.2-1.1.2-.5.3-1.1,0-1.6ZM237.6,59.9c1,.7,1.3,2.2.8,4.4-.5,2.1-1.6,4.4-3.2,6.7-2.7,3.9-6.1,6.3-8.3,6.3s-1-.1-1.3-.4c-1-.7-1.3-2.2-.8-4.4.1-.5.3-1.1.5-1.7,2-4.4,5.1-8.1,9-10.8,1.3-.6,2.5-.7,3.3,0Z"/>
  </g>
</svg>