<?xml version="1.0" encoding="UTF-8"?>
<svg id="Warstwa_1" xmlns="http://www.w3.org/2000/svg" xmlns:xlink="http://www.w3.org/1999/xlink" version="1.1" viewBox="0 0 1024 1024">
  <!-- Generator: Adobe Illustrator 29.0.0, SVG Export Plug-In . SVG Version: 2.1.0 Build 186)  -->
  <defs>
    <style>
      .st0 {
        fill: #ff67b8;
      }

      .st1 {
        filter: url(#drop-shadow-1);
      }

      .st2 {
        fill: #062f4c;
      }

      .st3 {
        fill: #606060;
      }

      .st4 {
        fill: url(#Gradient_bez_nazwy_12);
      }

      .st5 {
        fill: url(#Gradient_bez_nazwy_121);
      }

      .st6 {
        fill: url(#Gradient_bez_nazwy_122);
      }
    </style>
    <filter id="drop-shadow-1" x="12.5" y="12.5" width="999.1" height="999.1" filterUnits="userSpaceOnUse">
      <feOffset dx="61.2" dy="61.2"/>
      <feGaussianBlur result="blur" stdDeviation="43.7"/>
      <feFlood flood-color="#999" flood-opacity=".8"/>
      <feComposite in2="blur" operator="in"/>
      <feComposite in="SourceGraphic"/>
    </filter>
    <linearGradient id="Gradient_bez_nazwy_12" data-name="Gradient bez nazwy 12" x1="217.5" y1="706.8" x2="806.4" y2="706.8" gradientUnits="userSpaceOnUse">
      <stop offset="0" stop-color="#dfbb90"/>
      <stop offset="0" stop-color="#dfbb90"/>
      <stop offset=".6" stop-color="#eacfaf"/>
      <stop offset="1" stop-color="#efd7bb"/>
    </linearGradient>
    <linearGradient id="Gradient_bez_nazwy_121" data-name="Gradient bez nazwy 12" x1="281.9" y1="525.3" x2="742.1" y2="525.3" xlink:href="#Gradient_bez_nazwy_12"/>
    <linearGradient id="Gradient_bez_nazwy_122" data-name="Gradient bez nazwy 12" x1="351.1" y1="363" x2="672.9" y2="363" xlink:href="#Gradient_bez_nazwy_12"/>
  </defs>
  <g>
    <g>
      <path class="st3" d="M-1800.9,860.8c9.1,5.2,16.2,12.3,21.2,21.4,5.1,9.1,7.6,19.5,7.6,31.2s-2.5,22.1-7.6,31.3-12.1,16.4-21.2,21.5c-9.1,5.2-19.5,7.7-31.1,7.7h-28c-2.3,0-4.2-.8-5.7-2.3s-2.3-3.5-2.3-5.7v-104.8c0-2.4.8-4.3,2.3-5.8s3.5-2.2,5.7-2.2h28c11.7,0,22,2.6,31.1,7.7h0ZM-1809,953.8c6.8-3.9,12-9.4,15.8-16.5s5.7-15,5.7-23.9-1.9-16.8-5.7-23.8c-3.8-7-9-12.5-15.8-16.4s-14.4-5.9-23-5.9h-20v92.4h20c8.6,0,16.2-2,23-5.9h0Z"/>
      <path class="st3" d="M-1691.4,894.3c6.4,3.8,11.6,8.9,15.3,15.5,3.8,6.6,5.7,13.9,5.7,21.9v34.5c0,2.3-.7,4.2-2.2,5.7s-3.4,2.2-5.7,2.2-4.2-.7-5.7-2.2-2.2-3.4-2.2-5.7v-5.7c-3.6,4.4-8,7.9-13.2,10.4s-10.7,3.7-16.7,3.7-14.2-1.9-20.2-5.6c-6-3.7-10.8-8.9-14.2-15.4-3.5-6.6-5.2-13.9-5.2-21.9s1.9-15.4,5.6-21.9c3.7-6.6,8.8-11.7,15.4-15.5s13.8-5.7,21.8-5.7,15.1,1.9,21.6,5.7h-.1ZM-1699,956.8c4.2-2.5,7.5-6,9.8-10.4,2.4-4.4,3.6-9.3,3.6-14.8s-1.2-10.4-3.6-14.9c-2.4-4.4-5.7-7.9-9.8-10.5-4.2-2.5-8.9-3.8-14-3.8s-9.8,1.3-14,3.8-7.5,6-9.9,10.5c-2.4,4.4-3.6,9.4-3.6,14.9s1.2,10.4,3.6,14.8c2.4,4.4,5.7,7.8,9.9,10.4,4.2,2.5,8.9,3.8,14,3.8s9.8-1.3,14-3.8Z"/>
      <path class="st3" d="M-1553.7,891c1.1,1.1,1.6,2.7,1.6,4.6s-.3,3.2-.8,4.5l-22.9,68.7c-.5,1.4-1.4,2.7-2.8,3.6-1.3,1-2.8,1.5-4.5,1.5s-3.3-.5-4.7-1.5c-1.4-1-2.3-2.2-2.7-3.6l-15.2-56.2-15.9,56.2c-.5,1.4-1.5,2.7-2.9,3.6-1.4,1-2.9,1.5-4.6,1.5s-3.2-.5-4.6-1.5-2.3-2.2-2.9-3.6l-22.9-68.7c-.4-1.3-.6-2.8-.6-4.3,0-4.3,2.2-6.5,6.5-6.5s3.6.6,4.9,1.7c1.3,1.1,2.3,2.9,3.2,5.4l16.7,52.2,15.8-53.4c.5-1.8,1.4-3.2,2.7-4.3,1.3-1.1,3-1.6,5-1.6s3.6.5,4.9,1.6,2.2,2.5,2.7,4.3l13.9,54.5,17-53.3c1.4-4.7,4.1-7.1,8.1-7.1s3.8.6,4.9,1.7h.1Z"/>
      <path class="st3" d="M-1477.4,893.1c5.7,3.1,10.1,7.6,13.3,13.5,3.2,5.9,4.8,13.1,4.8,21.4v38.1c0,2.3-.7,4.2-2.2,5.7s-3.4,2.2-5.7,2.2-4.2-.7-5.7-2.2-2.2-3.4-2.2-5.7v-38.1c0-8.4-2.2-14.7-6.7-19s-10.5-6.4-17.9-6.4-8.3.9-11.8,2.6c-3.6,1.8-6.3,4.1-8.4,7.1-2,3-3,6.3-3,10.1v43.7c0,2.3-.7,4.2-2.2,5.7-1.4,1.5-3.4,2.2-5.7,2.2s-4.2-.7-5.7-2.2-2.2-3.4-2.2-5.7v-69.1c0-2.4.7-4.3,2.2-5.7s3.4-2.2,5.7-2.2,4.3.7,5.7,2.2c1.4,1.4,2.2,3.4,2.2,5.7v1.7c3.3-3.3,7.2-5.9,11.8-7.7,4.5-1.8,9.4-2.7,14.6-2.7s13.5,1.5,19.2,4.6v.2Z"/>
      <path class="st3" d="M-1379.1,894.1c6.4,3.7,11.5,8.7,15.2,15.3,3.7,6.5,5.5,13.9,5.5,22.3s-1.8,15.6-5.4,22.1-8.6,11.6-15.1,15.3-13.8,5.5-22.1,5.5-15.6-1.8-22.1-5.5-11.6-8.7-15.2-15.3c-3.6-6.5-5.4-13.9-5.4-22.1s1.8-15.8,5.4-22.3,8.7-11.6,15.2-15.3,13.9-5.5,22.1-5.5,15.5,1.8,21.9,5.5ZM-1415.1,906.3c-4.2,2.5-7.5,5.9-9.8,10.4-2.4,4.4-3.6,9.4-3.6,15s1.2,10.6,3.6,14.9c2.4,4.4,5.7,7.8,9.8,10.3s8.9,3.7,14.2,3.7,10-1.2,14.2-3.7,7.4-5.9,9.8-10.3c2.3-4.4,3.5-9.4,3.5-14.9s-1.2-10.6-3.5-15-5.6-7.9-9.8-10.4-8.9-3.7-14.2-3.7-10,1.2-14.2,3.7Z"/>
    </g>
    <g>
      <path class="st3" d="M-1816.5,1107.2c1.3,1.4,1.9,3.3,1.9,5.6s-.9,4.1-2.6,5.6c-1.7,1.4-3.9,2.2-6.6,2.2h-2.8c-5.1,0-9.7-1.3-13.9-3.9-4.2-2.6-7.5-6.2-9.8-10.8-2.4-4.5-3.6-9.7-3.6-15.3v-38.2h-7.1c-2.2,0-3.9-.6-5.3-1.9-1.3-1.2-2-2.8-2-4.6s.7-3.7,2-5c1.3-1.2,3.1-1.9,5.3-1.9h7.1v-22.3c0-2.3.7-4.1,2.2-5.6s3.3-2.2,5.6-2.2,4.1.7,5.6,2.2,2.2,3.3,2.2,5.6v22.3h13.2c2.2,0,3.9.6,5.3,1.9,1.3,1.2,2,2.9,2,5s-.7,3.4-2,4.6-3.1,1.9-5.3,1.9h-13.2v38.2c0,4.1,1.1,7.6,3.4,10.4s5.1,4.2,8.4,4.2h5.3c1.9,0,3.4.7,4.7,2.2v-.2Z"/>
      <path class="st3" d="M-1721.2,1081.7c-1.3,1.3-3,1.9-5.1,1.9h-58.8c1.1,7.2,4.4,13.1,9.8,17.5s12.1,6.7,19.9,6.7,6.3-.6,9.7-1.7c3.4-1.1,6.1-2.5,8.3-4.2,1.4-1.1,3.1-1.7,5.1-1.7s3.5.5,4.6,1.5c1.9,1.5,2.8,3.3,2.8,5.3s-.8,3.4-2.5,4.6c-3.5,2.8-7.9,5.1-13.1,6.8-5.2,1.8-10.2,2.6-14.9,2.6-8.5,0-16.1-1.8-22.8-5.5-6.7-3.7-11.9-8.7-15.7-15.3-3.8-6.5-5.7-13.9-5.7-22.1s1.8-15.7,5.3-22.2c3.6-6.6,8.5-11.7,14.9-15.3,6.3-3.7,13.5-5.5,21.6-5.5s14.8,1.8,20.6,5.3c5.8,3.5,10.2,8.4,13.3,14.7,3.1,6.3,4.6,13.5,4.6,21.7s-.7,3.6-2,4.9h0ZM-1776.1,1054.7c-4.7,4.1-7.7,9.7-8.9,16.6h51.6c-.9-6.9-3.5-12.4-7.7-16.6-4.2-4.1-9.8-6.2-16.6-6.2s-13.7,2.1-18.3,6.2h0Z"/>
      <path class="st3" d="M-1588.2,1043.9c5.5,5.9,8.3,14.1,8.3,24.6v44.3c0,2.3-.7,4.2-2.2,5.7-1.4,1.5-3.4,2.2-5.7,2.2s-4.2-.7-5.7-2.2-2.2-3.4-2.2-5.7v-44.3c0-6.3-1.6-11.1-4.7-14.3-3.2-3.3-7.4-4.9-12.6-4.9s-9.8,1.9-13.2,5.6c-3.5,3.7-5.2,8.5-5.2,14.2v43.7c0,2.3-.7,4.2-2.2,5.7-1.4,1.5-3.4,2.2-5.7,2.2s-4.2-.7-5.7-2.2-2.2-3.4-2.2-5.7v-44.3c0-6.3-1.6-11.1-4.7-14.3-3.2-3.3-7.4-4.9-12.6-4.9s-9.9,1.9-13.4,5.6-5.2,8.5-5.2,14.2v43.7c0,2.3-.7,4.2-2.2,5.7-1.4,1.5-3.4,2.2-5.7,2.2s-4.2-.7-5.7-2.2-2.2-3.4-2.2-5.7v-68.9c0-2.4.7-4.3,2.2-5.7,1.5-1.4,3.4-2.2,5.7-2.2s4.1.7,5.6,2.1c1.4,1.4,2.2,3.2,2.3,5.5,2.7-2.7,5.9-4.8,9.6-6.3s7.7-2.2,12.1-2.2,10,1.1,14.2,3.2,7.6,5.1,10.3,9.1c3.1-3.8,7-6.8,11.6-9s9.8-3.3,15.5-3.3c9,0,16.2,2.9,21.8,8.8h-.2Z"/>
      <path class="st3" d="M-1478.2,1037.8c1.4,1.4,2.2,3.4,2.2,5.7v69.1c0,2.3-.7,4.2-2.2,5.7-1.4,1.5-3.4,2.2-5.7,2.2s-4.2-.7-5.7-2.2-2.2-3.4-2.2-5.7v-1.7c-3.3,3.3-7.2,5.9-11.8,7.7-4.5,1.8-9.4,2.7-14.6,2.7s-13.5-1.5-19.2-4.6-10.1-7.6-13.3-13.5c-3.2-5.9-4.8-13.1-4.8-21.4v-38.1c0-2.3.7-4.2,2.2-5.7s3.4-2.2,5.7-2.2,4.2.7,5.7,2.2,2.2,3.4,2.2,5.7v38.1c0,8.4,2.2,14.7,6.7,19s10.5,6.4,17.9,6.4,8.3-.9,11.8-2.6c3.6-1.8,6.3-4.1,8.4-7.1,2-3,3-6.3,3-10.1v-43.7c0-2.4.7-4.3,2.2-5.7,1.5-1.4,3.4-2.2,5.7-2.2s4.3.7,5.7,2.2v-.2Z"/>
    </g>
  </g>
  <g>
    <g class="st1">
      <path class="st2" d="M788.9,12.5H235.1C112.2,12.5,12.5,112.2,12.5,235.1v553.8c0,123,99.7,222.7,222.7,222.7h553.8c123,0,222.6-99.7,222.6-222.6V235.1c0-123-99.7-222.7-222.7-222.7Z"/>
    </g>
    <g>
      <g>
        <path class="st0" d="M808.7,841.4v-89.7c0-14.5-14.9-24.6-28.2-18.7-20.7,9.1-38.2,25.3-59.2,33.9-41.8,17-87.6,13.4-126.5-9-38.6-22.2-48.4-36-98.7-31.5-36.9,3.3-56.4,30-88.2,42-32.2,12.2-68.8,12.6-101.1.4-22.8-8.6-41.2-26-63.2-35.7-13.4-5.9-28.4,4-28.4,18.6v89.7h-.2c0,14.2,11.5,25.7,25.7,25.7l543-.5c13.9,0,25.1-11.3,25.1-25.2h0s-.2,0-.2,0Z"/>
        <path class="st4" d="M804.9,682c4.3,8.4-.7,18.8-10.1,20.5-3.9.7-7.7,1.5-11.3,2.5-53,14.4-68.3,56.1-135.6,45.2-38.4-6.2-57.8-33-92.3-43.9-18.1-5.7-39.1-6.9-58-5.7-68.3,4.5-87.9,67.2-169,48.1-28.4-6.7-45.7-26.9-71.3-37.7-8.9-3.8-18.3-6.6-27.9-8.4-9.3-1.8-14.6-11.9-10.3-20.3,5.7-11.2,17.1-19.2,30.3-20.9h523.8c13.7,1.1,25.7,9.2,31.7,20.7Z"/>
        <path class="st5" d="M319.4,480.1l382.5-.4c19,1.5,32.3,8.5,38.9,23.3,3.6,8-1,17.4-9.4,20.1-7.6,2.4-15.2,4.7-22.7,8.8-24.1,13.3-32.1,35-64.5,38.4-50.2,5.3-55.1-26-90.9-42-22.2-9.9-45.1-11.9-68.7-5.5-42.9,11.7-51.2,52.4-103.7,47.7-34.2-3.1-43.3-27.5-69.9-40.6-6-3-12.2-5-18.5-6.8s-13.2-12.3-9.4-20.4c6.3-13.5,19.9-22.1,36.2-22.5Z"/>
        <path class="st0" d="M745.1,562.6v53.2c0,10.9-8.9,19.8-19.8,19.8h-426.7c-10.9,0-19.8-8.9-19.8-19.8v-53.2c0-9,9.5-14.9,17.6-10.9,19.8,9.8,34,29.3,55.1,37.7,20.9,8.4,45,9.3,66.6,3.1,40.1-11.6,52.6-51.9,100.5-47.5,35,3.2,42.6,25.8,69,40,25.8,13.8,57.6,15.4,84.8,4.5,21.6-8.7,35.2-27.9,55.1-37.7,8.1-4,17.6,1.9,17.6,10.9Z"/>
        <path class="st6" d="M669.6,337.6c5.6,6,3.8,15.7-3.7,19.3-21.1,10.1-36.4,42-55.1,45.1-35.6,6-40.9-26.7-65.6-41.1-25.5-14.9-54.9-12-77.1,7.4-12.4,10.8-19.5,29.7-37.7,33.4-35.2,7.2-45.5-31.6-72.8-45s-8.6-13.1-3.2-18.9c6.3-6.7,15.5-11.3,24-12.5.8-.1,1.6-.1,2.5,0,84.9,4.6,176.7-6.4,260.7-.2,10.3.8,21.2,5,28.1,12.5Z"/>
        <path class="st0" d="M680,391.8v42.3c0,10.9-8.9,19.8-19.8,19.8h-296.5c-10.9,0-19.8-8.9-19.8-19.8v-42.3c0-6,7-9.1,11.6-5.1,9.2,7.9,15.1,19.2,24.9,27,25,19.9,57.8,19.7,82.4-.6,12.9-10.6,21.4-29.3,38.2-34.4,35.4-10.8,43.7,26.6,67.4,40.7,22.6,13.5,51.5,12,72.7-3.6,11.1-8.2,17.4-20.9,27.7-29.5,4.4-3.7,11.2-.3,11.2,5.5Z"/>
      </g>
      <path class="st0" d="M565.8,158.8c-.3-.8-.8-1.4-1.5-1.7-.7-.4-1.5-.4-2.3-.1h0c-1.6.6-15.8,5.8-30,16.5-8.8,6.6-15.8,14-20.8,22-4.6,7.3-7.6,15.1-8.9,23.3,0,0,0,0,0,0,0,0-.2,0-.3,0-12.9,0-25,5.7-33.2,15.6,0,0,0,0,0,0,0,0,0,0-.1.1-1.1,1.3-1.9,2.8-2.9,4.2-.2.4-.5.7-.8,1.1,0,0,0,0,0,0-7.8,12.9-8.5,29.5-.5,44,5.5,9.9,15.3,17.3,26.3,20.1,28.6,7.2,54.4-14.3,54.4-41.8s0-1.5,0-2.4c0,0,0,0,0,0-.2-1-.3-2.1-.3-3.1-.2-1.1-.4-2.2-.5-3.4,0,0,0,0,0,0-3.7-17.7-18.1-31.2-36-33.9,1.2-7.2,3.8-14.1,8-20.6,8.2-12.9,20.7-22,29.8-27.3,5.2-3.1,9.8-5.2,12.8-6.5,1.7-.7,3-1.3,3.8-1.6.4-.2.8-.3,1-.4h.3c.8-.4,1.4-.9,1.7-1.6.4-.7.4-1.5.1-2.3ZM485.6,231.1c1.4,1,1.8,3.2,1.1,6.2-.7,3-2.3,6.3-4.6,9.6-3.9,5.5-8.7,9-11.9,9s-1.4-.2-1.9-.6c-1.4-1-1.8-3.2-1.1-6.2.2-.8.4-1.6.7-2.4,2.8-6.3,7.3-11.7,13-15.5,1.9-.8,3.5-.9,4.7-.1Z"/>
    </g>
  </g>
</svg>